PathFileType	4	(X/Y/Z)	C:/Users/beibeiliu/ov580/test_trc/User3\sequence.30_training_dense_right.trc
DataRate	CameraRate	NumFrames	NumMarkers	Units	OrigDataRate	OrigDataStartFrame	OrigNumFrames
120	120	12	19	mm	120	210	239
Frame#	Time	ThumbCMC			ThumbMCP			ThumbIP			ThumbTip			IndexMCP			IndexPIP			IndexTip			MiddleMCP			MiddlePIP			MiddleTip			RingMCP			RingPIP			RingTip			PinkyMCP			PinkyPIP			PinkyTip			BackHand1			BackHand2			BackHand3	
		X0	Y0	Z0	X1	Y1	Z1	X2	Y2	Z2	X3	Y3	Z3	X4	Y4	Z4	X5	Y5	Z5	X6	Y6	Z6	X7	Y7	Z7	X8	Y8	Z8	X9	Y9	Z9	X10	Y10	Z10	X11	Y11	Z11	X12	Y12	Z12	X13	Y13	Z13	X14	Y14	Z14	X15	Y15	Z15	X16	Y16	Z16	X17	Y17	Z17	X18	Y18	Z18	
209	1.74167	191.885	18.1302	14.8177	166.61	22.0603	-10.5286	149.018	22.5211	-32.6959	131.321	16.0811	-52.0703	190.105	-7.38856	-55.8217	163.759	-1.33291	-74.8281	138.1	9.45452	-73.8474	184.465	-31.5951	-58.0168	161.074	-27.8265	-81.295	129.707	-9.06769	-85.1891	178.208	-44.9943	-48.3945	151.316	-42.9611	-69.8809	123.378	-28.4556	-69.5375	167.102	-57.6476	-31.8374	146.332	-55.9054	-51.0164	125.029	-43.6993	-54.9718	199.849	-48.2634	0.126197	204.382	-45.9172	30.7638	214.283	-18.4278	7.99355	
210	1.75	192.332	13.0969	16.3697	167.349	18.0919	-11.498	148.151	18.0847	-34.5068	132.755	15.1731	-47.3305	190.77	-8.33003	-58.7642	168.93	-4.13077	-76.594	139.089	12.3542	-78.0538	183.438	-31.46	-62.2073	162.319	-21.0218	-82.3458	130.455	-6.97583	-79.0726	179.354	-45.7573	-46.2911	156.036	-40.1894	-69.9531	129.336	-25.9321	-70.6896	169.777	-58.8503	-26.7981	153.041	-59.0377	-50.5298	130.757	-46.471	-58.4774	201.824	-43.9983	1.8113	207.804	-44.277	33.0518	217.499	-16.4217	9.81795	
211	1.75833	192.218	17.4351	14.153	167.267	24.136	-9.11968	147.984	21.5657	-35.2388	131.137	12.961	-51.0778	191.682	-8.62486	-59.7313	170.615	-3.03738	-78.869	141.156	11.125	-79.6018	186.126	-28.917	-58.8149	160.817	-22.0026	-77.7361	128.752	-4.13758	-70.602	179.537	-43.2988	-49.9268	154.885	-42.6419	-68.8514	127.718	-27.0296	-65.1965	172.883	-60.0099	-28.9814	161.964	-61.7506	-49.1881	134.991	-50.9684	-62.676	203.393	-44.3185	0.0431424	204.846	-44.805	33.5287	217.82	-17.7025	8.38836	
212	1.76667	192.713	17.3045	12.2061	167.777	19.8071	-8.56387	147.556	22.0312	-34.9532	130.467	10.2176	-51.2515	193.796	-9.00945	-59.3407	173.418	-3.69295	-77.7996	143.47	10.0478	-81.4731	183.05	-30.7456	-61.2595	160.616	-20.3473	-77.036	128.409	-3.58937	-66.8297	177.682	-48.0335	-50.4175	155.436	-39.9724	-69.5986	128.511	-24.6884	-64.9221	174.047	-61.055	-29.9576	162.181	-63.086	-53.0368	138.728	-53.1232	-64.9196	204.061	-45.4102	2.10406	206.163	-42.3428	29.9914	218.421	-15.5903	9.05854	
213	1.775	193.734	15.5466	13.8856	167.611	21.4362	-13.8671	147.226	19.6032	-36.4245	130.546	6.20977	-52.5138	196.005	-9.28903	-56.6577	174.525	-3.89675	-78.9847	144.928	10.2725	-83.882	185.374	-30.7898	-58.2732	158.721	-21.2507	-78.1846	125.849	-2.17665	-64.1031	180.062	-44.0267	-51.1233	157.523	-40.9513	-69.0999	129.502	-20.1743	-67.2761	174.379	-59.1107	-28.0193	161.98	-64.3715	-52.2421	144.784	-53.3679	-67.1384	203.255	-46.7037	4.80201	205.557	-44.8052	33.9718	219.764	-15.6059	12.433	
214	1.78333	195.069	17.4255	14.7162	169.573	20.1113	-9.51055	148.043	20.0758	-37.1349	131.075	9.6541	-49.9782	196.719	-9.7043	-58.4665	175.631	-5.68582	-79.2844	149.381	9.6897	-85.5991	186.194	-28.5977	-60.1395	160.742	-23.1671	-77.7606	130.902	2.02441	-68.8132	180.333	-43.6491	-51.3035	156.404	-39.1236	-71.3435	131.273	-22.131	-68.9031	172.932	-60.3261	-28.7081	162.421	-60.977	-54.5246	143.507	-50.9965	-68.9768	201.032	-48.8697	0.722951	204.923	-48.0563	31.1918	217.632	-18.3917	12.094	
215	1.79167	196.023	16.5293	13.3911	170.103	20.2559	-13.581	150.742	18.4907	-34.9202	133.049	8.01169	-50.7696	197.401	-11.5927	-59.0143	178.581	-4.18548	-82.3533	153.487	8.95213	-87.8629	187.688	-26.4195	-62.272	164.041	-19.7324	-79.7295	131.886	2.01623	-69.1544	177.701	-44.9947	-49.4514	156.118	-34.4513	-71.21	134.216	-17.6665	-67.8765	173.584	-57.1403	-30.4773	160.408	-61.0902	-52.326	143.189	-50.706	-68.1696	202.188	-45.4887	3.11688	205.216	-44.423	31.877	221.47	-16.2177	9.35467	
216	1.8	197.293	18.6419	13.4962	170.645	19.6385	-11.3553	150.393	14.2162	-35.7927	133.722	4.37598	-51.5173	201.828	-9.56438	-57.8659	182.532	-4.73417	-81.3923	155.75	6.83329	-89.1288	190.995	-26.6412	-58.0765	161.699	-17.4005	-78.5729	136.807	6.58231	-68.9289	179.949	-41.8217	-51.1822	157.587	-35.7508	-68.2003	132.665	-12.4135	-63.4012	172.823	-55.6111	-30.185	160.87	-54.2099	-54.4002	137.395	-44.5632	-67.4639	204.419	-45.05	0.434029	205.377	-46.4237	30.3173	219.496	-17.1794	13.5057	
217	1.80833	196.922	17.5205	15.0687	170.468	22.4519	-11.2532	149.382	16.0411	-37.4626	134.446	2.30425	-46.947	205.098	-7.88402	-58.6756	185.235	-2.34967	-83.3188	157.477	8.33023	-90.2299	188.452	-28.9133	-60.8832	163.24	-19.3996	-78.2715	134.201	4.20225	-65.4318	179.882	-41.8643	-50.949	155.008	-35.7454	-67.3097	133.077	-13.5289	-63.953	172.697	-55.9366	-30.2257	159.401	-55.3368	-52.5361	141.627	-42.8444	-66.9676	202.34	-44.871	3.57597	206.512	-45.8945	29.7629	220.464	-16.4205	11.1892	
218	1.81667	197.9	16.4462	14.601	170.288	19.9044	-13.3889	149.424	14.2199	-38.5441	133.652	1.08753	-50.1105	205.031	-9.45185	-58.2926	185.577	-3.79389	-83.4793	157.116	5.40184	-91.3148	192.411	-28.994	-60.5584	164.6	-21.9847	-80.5049	135.432	1.60048	-71.227	179.632	-42.5688	-51.2061	157.766	-39.1672	-67.7512	133.642	-16.6949	-64.8654	174.117	-53.019	-30.3748	157.663	-56.0709	-51.1295	137.974	-35.5344	-64.5294	205.569	-45.6219	4.73607	208.686	-43.3822	31.9538	220.749	-19.1103	10.7933	
219	1.825	197.348	14.8754	15.1093	170.872	21.4017	-14.3734	151.183	12.1794	-39.5631	134.789	-1.8481	-50.092	203.286	-14.7408	-55.7291	183.889	-9.75874	-83.1043	161.592	1.867	-92.4602	193.183	-33.6961	-61.3564	170.974	-26.5843	-82.352	141.86	-2.87759	-81.2241	178.751	-46.2155	-50.1813	159.685	-37.7839	-69.6731	135.306	-16.3022	-70.112	171.068	-52.7088	-33.8072	156.286	-50.4144	-51.3833	134.876	-33.4107	-60.279	201.803	-46.5957	3.77565	205.535	-42.8057	31.9414	220.455	-16.6248	13.4882	
220	1.83333	200.706	16.3969	13.0331	172.939	16.6113	-16.255	151.809	11.8436	-39.2041	135.933	-6.11021	-51.8885	205.714	-15.6484	-59.9478	185.976	-10.5589	-85.1773	163.398	3.3215	-94.8288	193.802	-38.4824	-60.6861	173.904	-28.0774	-86.6266	144.873	-9.3307	-87.2361	182.678	-46.1219	-46.249	161.139	-41.7455	-70.7859	139.195	-19.4287	-75.3148	167.548	-50.6653	-32.6163	146.997	-46.6973	-52.5762	133.454	-27.5566	-59.0689	199.389	-48.8717	3.81477	203.542	-42.3983	34.6183	220.182	-20.2531	7.85734	
